# xmcd
#
# Track frame offsets: 
#        150
#        22815
#        58209
#        77129
#        126400
#        148274
#        176122
#
# Disc length: 2790 seconds
#
# Revision: 0
# Processed by: cddbd v1.5.2PL0 Copyright (c) Steve Scherf et al.
# Submitted via: ExactAudioCopy v0.99pb5
#
DISCID=640ae407
DTITLE=Chris Bell and 100% Blues - Live
DYEAR=2002
DGENRE=Blues
TTITLE0=Texas Flood
TTITLE1=Cold-Hearted Woman
TTITLE2=Doin' Time
TTITLE3=Elevator To Heaven
TTITLE4=Play The Blues
TTITLE5=Hate It When You Lie
TTITLE6=Feels Like Rain
EXTD=
EXTT0=
EXTT1=
EXTT2=
EXTT3=
EXTT4=
EXTT5=
EXTT6=
PLAYORDER=
